<?xml version="1.0" standalone="no"?>
<!DOCTYPE svg PUBLIC "-//W3C//DTD SVG 20010904//EN"
 "http://www.w3.org/TR/2001/REC-SVG-20010904/DTD/svg10.dtd">
<svg version="1.0" xmlns="http://www.w3.org/2000/svg"
 width="300.000000pt" height="300.000000pt" viewBox="0 0 300.000000 300.000000"
 preserveAspectRatio="xMidYMid meet">
<metadata>
Created by potrace 1.10, written by Peter Selinger 2001-2011
</metadata>
<g transform="translate(0.000000,300.000000) scale(0.100000,-0.100000)"
fill="#000000" stroke="none">
<path d="M1389 2122 c-85 -48 -184 -105 -221 -125 -38 -21 -68 -40 -68 -42 0
-3 19 3 43 13 32 13 71 17 162 17 149 0 198 -15 379 -119 150 -87 154 -87 236
0 43 45 51 59 48 86 -3 31 -13 38 -198 145 -107 62 -202 112 -211 113 -9 0
-85 -40 -170 -88z m241 20 c74 -41 161 -91 220 -123 65 -37 90 -57 90 -76 0
-22 -94 -113 -117 -113 -12 0 -57 21 -100 46 -174 104 -240 128 -388 144 -38
4 -65 8 -59 9 6 0 69 35 140 76 139 80 139 80 214 37z"/>
<path d="M1185 1954 c-33 -8 -81 -24 -107 -36 l-48 -21 1 -276 c1 -195 4 -260
10 -221 12 76 98 243 155 303 55 57 95 85 232 162 116 66 117 63 -12 89 -90
19 -151 19 -231 0z m225 -25 l51 -11 -58 -35 c-32 -19 -74 -43 -94 -53 -60
-31 -150 -120 -201 -200 l-48 -75 0 162 c0 158 1 163 23 174 81 44 223 60 327
38z"/>
<path d="M1211 1684 c-61 -66 -124 -191 -149 -294 l-19 -75 61 -23 c81 -31
168 -45 239 -38 66 7 187 37 187 47 0 4 -13 12 -29 19 -50 20 -138 122 -176
202 -32 69 -61 191 -49 209 3 5 1 9 -4 9 -6 0 -33 -25 -61 -56z m91 -176 c22
-47 58 -99 97 -140 l61 -66 -27 -7 c-126 -32 -353 4 -353 55 0 60 74 227 129
292 l35 41 11 -50 c6 -28 27 -84 47 -125z"/>
<path d="M1720 1379 c-126 -76 -208 -115 -276 -133 -85 -22 -207 -21 -286 3
-76 23 -85 29 181 -121 198 -112 215 -119 240 -108 47 21 325 182 359 207 48
36 43 64 -25 134 -32 32 -69 61 -83 64 -18 3 -48 -9 -110 -46z m176 -33 c30
-30 54 -61 54 -69 0 -18 -22 -37 -95 -77 -33 -18 -80 -44 -105 -58 -25 -14
-54 -30 -65 -36 -11 -6 -22 -13 -25 -16 -14 -14 -91 -50 -107 -50 -10 1 -36
12 -58 25 -22 13 -67 38 -100 56 -69 37 -115 67 -115 77 0 4 15 7 33 7 60 1
132 13 177 30 52 20 178 81 194 94 23 18 130 71 144 71 8 0 39 -24 68 -54z"/>
</g>
</svg>
